<svg xmlns="http://www.w3.org/2000/svg" version="1.1" xmlns:xlink="http://www.w3.org/1999/xlink" width="2000" height="343" viewBox="0 0 2000 343"><svg xml:space="preserve" width="2000" height="343" data-version="2" data-id="lg_BdgvJtA4GdQXmolU9b" viewBox="0 0 420 72" x="0" y="0">
    <rect width="100%" height="100%" fill="transparent"></rect>
    <path fill="#000000" d="M21.865 55.135q-5.11 0-9.14-2.52-4.02-2.52-6.37-6.86-2.34-4.34-2.34-9.73 0-5.39 2.34-9.73 2.35-4.34 6.37-6.86 4.03-2.52 9.14-2.52 4.9 0 8.92 1.99 4.03 2 6.13 5.43l-3.99 4.9q-1.12-1.61-2.87-2.94-1.75-1.33-3.71-2.1t-3.78-.77q-3.36 0-5.99 1.64-2.62 1.65-4.16 4.52-1.54 2.87-1.54 6.44 0 3.57 1.61 6.4 1.61 2.84 4.27 4.52 2.66 1.68 5.88 1.68 1.89 0 3.67-.63 1.79-.63 3.47-1.89 1.68-1.26 3.15-3.08l3.99 4.9q-2.24 3.15-6.41 5.18-4.16 2.03-8.64 2.03"></path>
    <rect width="32.9" height="38.22" x="-16.45" y="-19.11" fill="none" rx="0" ry="0" transform="matrix(1 0 0 1 20.965 36.525)"></rect>
    <path fill="#000000" d="M41.605 54.435v-36.75h7.28v11.55l-.7-2.8q.77-2.66 2.62-4.83 1.86-2.17 4.27-3.43 2.42-1.26 5.01-1.26 1.19 0 2.27.21 1.09.21 1.72.49l-1.89 7.84q-.84-.35-1.86-.6-1.01-.24-1.99-.24-1.89 0-3.61.73-1.71.74-3.01 2.03-1.29 1.3-2.06 3.01-.77 1.72-.77 3.75v20.3Z"></path>
    <rect width="22.47" height="37.52" x="-11.235" y="-18.76" fill="none" rx="0" ry="0" transform="matrix(1 0 0 1 53.34 36.175)"></rect>
    <path fill="#000000" d="M87.945 54.435v-23.94q0-3.08-2.21-5.01-2.2-1.92-5.56-1.92-3.08 0-5.57 1.26-2.48 1.26-4.51 3.85l-4.69-4.69q3.29-3.57 7.1-5.32 3.82-1.75 8.23-1.75 4.2 0 7.28 1.4t4.76 4.09q1.68 2.7 1.68 6.55v25.48Zm-10.99.7q-3.57 0-6.37-1.4-2.8-1.4-4.45-3.89-1.64-2.48-1.64-5.84 0-2.94 1.05-5.18 1.05-2.24 3.11-3.71 2.07-1.47 5.18-2.24 3.12-.77 7.18-.77h10.22l-.63 5.74h-10.5q-2.1 0-3.75.38-1.64.39-2.8 1.19-1.15.81-1.71 1.89-.56 1.09-.56 2.56 0 1.54.77 2.69.77 1.16 2.1 1.79 1.33.63 3.08.63 2.52 0 4.79-.88 2.28-.87 4.06-2.41 1.79-1.54 2.77-3.43l1.68 4.69q-1.47 2.45-3.64 4.27-2.17 1.82-4.69 2.87-2.52 1.05-5.25 1.05"></path>
    <rect width="29.96" height="38.22" x="-14.98" y="-19.11" fill="none" rx="0" ry="0" transform="matrix(1 0 0 1 79.975 36.525)"></rect>
    <path fill="#000000" d="M102.645 54.435v-36.75h7.21v36.75Zm3.5-44.87q-2.31 0-3.57-1.19-1.26-1.19-1.26-3.36 0-2.03 1.29-3.29 1.3-1.26 3.54-1.26 2.31 0 3.57 1.19 1.26 1.19 1.26 3.36 0 2.03-1.3 3.29-1.29 1.26-3.53 1.26"></path>
    <rect width="9.66" height="53.97" x="-4.83" y="-26.985" fill="none" rx="0" ry="0" transform="matrix(1 0 0 1 106.645 27.95)"></rect>
    <path fill="#000000" d="M135.265 70.535q-3.92 0-7.81-1.23-3.88-1.22-6.26-3.18l2.66-5.6q2.1 1.61 5.21 2.59 3.12.98 6.2.98 3.85 0 6.44-1.26 2.59-1.26 3.92-3.71t1.33-6.09v-7.07l.77.49q-.35 2.17-2.28 4.16-1.92 2-4.79 3.26-2.87 1.26-5.88 1.26-5.25 0-9.35-2.49-4.09-2.48-6.47-6.79-2.38-4.3-2.38-9.83t2.34-9.84q2.35-4.3 6.44-6.79 4.1-2.48 9.21-2.48 2.1 0 4.06.52 1.96.53 3.64 1.47 1.68.95 3.01 2.07 1.33 1.12 2.17 2.38.84 1.26 1.05 2.38l-1.54.56v-8.61h7.21v34.51q0 4.41-1.3 7.8-1.29 3.4-3.74 5.74-2.45 2.35-5.95 3.57-3.5 1.23-7.91 1.23m.28-22.05q3.43 0 6.09-1.61 2.66-1.61 4.13-4.41 1.47-2.8 1.47-6.44 0-3.64-1.51-6.48-1.5-2.83-4.13-4.44-2.62-1.61-6.05-1.61-3.36 0-5.99 1.64-2.62 1.65-4.13 4.48-1.5 2.84-1.5 6.41 0 3.57 1.5 6.4 1.51 2.84 4.13 4.45 2.63 1.61 5.99 1.61"></path>
    <rect width="37.59" height="53.62" x="-18.795" y="-26.81" fill="none" rx="0" ry="0" transform="matrix(1 0 0 1 135.87 44.225)"></rect>
    <path fill="#000000" d="M162.005 54.435v-36.75h7.28v7.84l-1.33.84q.56-1.82 1.78-3.5 1.23-1.68 3.01-2.98 1.79-1.29 3.85-2.06 2.07-.77 4.24-.77 3.15 0 5.53 1.05 2.38 1.05 3.92 3.15 1.54 2.1 2.24 5.25l-1.12-.28.49-1.19q.77-1.61 2.13-3.05 1.37-1.43 3.12-2.55 1.75-1.12 3.71-1.75 1.96-.63 3.85-.63 4.13 0 6.82 1.68 2.7 1.68 4.06 5.11 1.37 3.43 1.37 8.54v22.05h-7.28v-21.63q0-4.69-1.79-6.9-1.78-2.2-5.56-2.2-1.96 0-3.68.66-1.71.67-2.97 1.86-1.26 1.19-1.96 2.76-.7 1.58-.7 3.47v21.98h-7.28v-21.77q0-4.34-1.86-6.65-1.85-2.31-5.35-2.31-1.96 0-3.64.66-1.68.67-2.94 1.82-1.26 1.16-1.96 2.73-.7 1.58-.7 3.4v22.12Z"></path>
    <rect width="54.95" height="37.38" x="-27.475" y="-18.69" fill="none" rx="0" ry="0" transform="matrix(1 0 0 1 189.98 36.245)"></rect>
    <path fill="#000000" d="M237.395 55.135q-3.92 0-6.83-1.82-2.9-1.82-4.48-5.11-1.57-3.29-1.57-7.84v-22.68h7.21v20.72q0 4.83 2.27 7.63 2.28 2.8 6.34 2.8 2.03 0 3.71-.67 1.68-.66 2.9-1.85 1.23-1.19 1.93-2.87.7-1.68.7-3.64v-22.12h7.21v36.75h-7.21v-7.7l1.26-.84q-.84 2.59-2.84 4.69-1.99 2.1-4.72 3.32-2.73 1.23-5.88 1.23"></path>
    <rect width="32.27" height="37.45" x="-16.135" y="-18.725" fill="none" rx="0" ry="0" transform="matrix(1 0 0 1 241.15 36.91)"></rect>
    <path fill="#000000" d="M269.315 54.435V8.305h7.21v46.13Zm-7.63-29.75v-7h23.38v7Z"></path>
    <rect width="23.38" height="46.13" x="-11.69" y="-23.065" fill="none" rx="0" ry="0" transform="matrix(1 0 0 1 273.875 31.87)"></rect>
    <path fill="#000000" d="M305.715 55.135q-5.39 0-9.63-2.49-4.23-2.48-6.68-6.79-2.45-4.3-2.45-9.83t2.45-9.84q2.45-4.3 6.68-6.79 4.24-2.48 9.63-2.48 5.32 0 9.55 2.48 4.24 2.49 6.69 6.79 2.45 4.31 2.45 9.84t-2.45 9.83q-2.45 4.31-6.69 6.79-4.23 2.49-9.55 2.49m0-6.58q3.29 0 5.88-1.65 2.59-1.64 4.06-4.48 1.47-2.83 1.4-6.4.07-3.64-1.4-6.48-1.47-2.83-4.06-4.44-2.59-1.61-5.88-1.61t-5.92 1.64q-2.62 1.65-4.09 4.48-1.47 2.84-1.4 6.41-.07 3.57 1.4 6.4 1.47 2.84 4.09 4.48 2.63 1.65 5.92 1.65"></path>
    <rect width="37.45" height="38.22" x="-18.725" y="-19.11" fill="none" rx="0" ry="0" transform="matrix(1 0 0 1 306.18 36.525)"></rect>
    <path fill="#000000" d="m336.725 42.955-.35-7.84 17.57-17.43h9.73Zm-6.58 11.48v-51.8h7.21v51.8Zm24.78 0-13.86-16.17 5.11-4.69 17.99 20.86Z"></path>
    <rect width="34.02" height="51.8" x="-17.01" y="-25.9" fill="none" rx="0" ry="0" transform="matrix(1 0 0 1 347.655 29.035)"></rect>
    <path fill="#000000" d="M382.785 55.135q-5.39 0-9.63-2.49-4.23-2.48-6.68-6.79-2.45-4.3-2.45-9.83t2.45-9.84q2.45-4.3 6.68-6.79 4.24-2.48 9.63-2.48 5.32 0 9.55 2.48 4.24 2.49 6.69 6.79 2.45 4.31 2.45 9.84t-2.45 9.83q-2.45 4.31-6.69 6.79-4.23 2.49-9.55 2.49m0-6.58q3.29 0 5.88-1.65 2.59-1.64 4.06-4.48 1.47-2.83 1.4-6.4.07-3.64-1.4-6.48-1.47-2.83-4.06-4.44-2.59-1.61-5.88-1.61t-5.92 1.64q-2.62 1.65-4.09 4.48-1.47 2.84-1.4 6.41-.07 3.57 1.4 6.4 1.47 2.84 4.09 4.48 2.63 1.65 5.92 1.65"></path>
    <rect width="37.45" height="38.22" x="-18.725" y="-19.11" fill="none" rx="0" ry="0" transform="matrix(1 0 0 1 383.25 36.525)"></rect>
    <path fill="#000000" d="M410.155 55.205q-2.31 0-3.57-1.37-1.26-1.36-1.26-3.88 0-2.31 1.33-3.78 1.33-1.47 3.5-1.47 2.31 0 3.57 1.36 1.26 1.37 1.26 3.89 0 2.31-1.33 3.78-1.33 1.47-3.5 1.47"></path>
    <rect width="9.66" height="10.5" x="-4.83" y="-5.25" fill="none" rx="0" ry="0" transform="matrix(1 0 0 1 410.655 50.455)"></rect>
</svg></svg>